<svg width="89" height="12" viewBox="0 0 89 12" fill="none" xmlns="http://www.w3.org/2000/svg">
<path d="M88.7735 6L83 0.226497L77.2265 6L83 11.7735L88.7735 6ZM0 6V7H2.075V6V5H0V6ZM6.225 6V7H10.375V6V5H6.225V6ZM14.525 6V7H18.675V6V5H14.525V6ZM22.825 6V7H26.975V6V5H22.825V6ZM31.125 6V7H35.275V6V5H31.125V6ZM39.425 6V7H43.575V6V5H39.425V6ZM47.725 6V7H51.875V6V5H47.725V6ZM56.025 6V7H60.175V6V5H56.025V6ZM64.325 6V7H68.475V6V5H64.325V6ZM72.625 6V7H76.775V6V5H72.625V6ZM80.925 6V7H83V6V5H80.925V6Z" fill="#7F2EF0"/>
</svg>
